<?xml version="1.0" encoding="utf-8"?>
<!-- Generator: Adobe Illustrator 16.0.2, SVG Export Plug-In . SVG Version: 6.00 Build 0)  -->
<!DOCTYPE svg PUBLIC "-//W3C//DTD SVG 1.1//EN" "http://www.w3.org/Graphics/SVG/1.1/DTD/svg11.dtd">
<svg version="1.1" id="圖層_1" xmlns="http://www.w3.org/2000/svg" xmlns:xlink="http://www.w3.org/1999/xlink" x="0px" y="0px"
	 width="14px" height="14px" viewBox="0 0 14 14" enable-background="new 0 0 14 14" xml:space="preserve">
<path d="M10.858,4.589c0-1.446-1.199-3.028-3.196-3.322C7.7,1.176,7.723,1.079,7.723,0.973C7.723,0.574,7.399,0.25,7,0.25
	c-0.4,0-0.724,0.324-0.724,0.723c0,0.105,0.023,0.203,0.061,0.294C4.34,1.561,3.143,3.143,3.143,4.589
	c0,3.638-1.296,5.415-2.411,6.358C0.732,11.475,1.169,12,1.696,12h3.375c0,1,0.866,1.929,1.929,1.929C8.063,13.929,8.93,13,8.93,12
	h3.374c0.527,0,0.964-0.525,0.964-1.053C12.152,10.004,10.858,8.228,10.858,4.589z"/>
</svg>
